<?xml version="1.0" standalone="no"?><!DOCTYPE svg PUBLIC "-//W3C//DTD SVG 1.1//EN" "http://www.w3.org/Graphics/SVG/1.1/DTD/svg11.dtd"><svg class="icon" width="200px" height="200.00px" viewBox="0 0 1024 1024" version="1.1" xmlns="http://www.w3.org/2000/svg"><path d="M185.44 619.68c0-45.76 30.24-91.52 89.44-128A459.84 459.84 0 0 1 512 432a464 464 0 0 1 237.12 59.52A210.56 210.56 0 0 1 816 552.8a142.72 142.72 0 0 0 21.6-93.6 16 16 0 0 1 0-6.24A394.56 394.56 0 0 0 800 425.44 562.4 562.4 0 0 0 512 352a560.8 560.8 0 0 0-288 73.76c-75.2 46.24-126.08 106.56-126.08 186.08S148.8 768 224 813.6a560 560 0 0 0 288 73.6 560 560 0 0 0 288-73.6c75.36-46.08 128-113.92 128-193.92a200.96 200.96 0 0 0-56.16-135.2 183.84 183.84 0 0 1-39.04 100.8 110.88 110.88 0 0 1 5.76 34.4c0 45.76-30.4 91.68-89.44 128A460.8 460.8 0 0 1 512 807.04a464 464 0 0 1-237.12-59.52c-59.2-36.16-89.44-82.08-89.44-128z" fill="#4863EC" /><path d="M202.4 508.64c-24.16 69.44-18.24 131.84 12.96 176.8s87.36 71.2 160 71.2A409.28 409.28 0 0 0 608 674.24a420.16 420.16 0 0 0 153.92-196.8c24.16-69.44 18.4-131.84-12.96-176s-87.36-71.2-160-71.2a410.56 410.56 0 0 0-233.44 82.4 421.28 421.28 0 0 0-153.92 196.8z m-86.56-30.72a515.52 515.52 0 0 1 187.2-241.76 499.68 499.68 0 0 1 286.72-99.36c93.12 0 181.44 34.08 234.24 110.24S880 419.2 848 508.64A514.56 514.56 0 0 1 661.28 750.4a500.96 500.96 0 0 1-286.24 99.36c-93.12 0-181.28-34.08-234.24-110.24S85.12 567.36 115.84 477.92z" fill="#2744E0" /></svg>